
          <svg data-logo="logo" xmlns="http://www.w3.org/2000/svg" viewBox="0 0 189 43">
            <g id="logogram" transform="translate(0, 1) rotate(0)"><path fill-rule="evenodd" clip-rule="evenodd" d="M14.3966 6.66075L0.16687 20.7827C3.01308 23.6074 6.26443 25.988 9.80933 27.8505C10.7892 30.4299 12.325 32.8489 14.4169 34.9249C22.287 42.7353 35.0469 42.7353 42.9169 34.9249C45.0088 32.8489 46.5446 30.4299 47.5245 27.8503C51.0693 25.988 54.3207 23.6074 57.1669 20.7827L42.9486 6.67223C42.9381 6.66167 42.9276 6.65112 42.9169 6.64057C35.0469 -1.16991 22.287 -1.16991 14.4169 6.64057C14.4101 6.6473 14.4034 6.65402 14.3966 6.66075ZM41.5553 30.3983C37.4085 31.7872 33.0554 32.4985 28.6669 32.4985C24.2783 32.4985 19.9253 31.7872 15.7786 30.3983C16.2279 30.9899 16.7239 31.5576 17.2669 32.0965C23.5629 38.3449 33.7708 38.3449 40.0669 32.0965C40.6098 31.5576 41.106 30.9899 41.5553 30.3983ZM17.5591 9.18615C18.6283 9.88716 19.7652 10.487 20.9548 10.9761C23.3998 11.9812 26.0204 12.4985 28.6669 12.4985C31.3134 12.4985 33.934 11.9812 36.379 10.9761C37.5686 10.487 38.7054 9.88715 39.7747 9.18612C33.5572 3.3149 23.7766 3.31491 17.5591 9.18615Z" fill="#3B4158"/></g>
            <g id="logotype" transform="translate(64, 8)"><path fill="#000000" d="M12.27 27.42L12.27 27.42Q10.76 27.42 9.64 26.79Q8.52 26.16 7.89 25.01Q7.26 23.87 7.26 22.29L7.26 22.29Q7.26 20.80 7.79 19.80Q8.31 18.79 9.14 18.16Q9.97 17.53 10.96 17.20Q11.95 16.87 12.89 16.71L12.89 16.71L17.76 15.96Q17.80 14.94 17.38 14.37Q16.96 13.80 16.16 13.58Q15.36 13.35 14.26 13.35L14.26 13.35Q13.67 13.35 12.96 13.45Q12.27 13.54 11.50 13.73Q10.74 13.93 9.93 14.21Q9.12 14.49 8.29 14.89L8.29 14.89L8.05 10.43Q8.70 10.20 9.54 9.95Q10.38 9.71 11.36 9.51Q12.34 9.31 13.43 9.18Q14.52 9.06 15.68 9.06L15.68 9.06Q17.87 9.06 19.41 9.70Q20.96 10.34 21.79 11.70Q22.61 13.07 22.61 15.27L22.61 15.27Q22.61 16.13 22.61 17.38Q22.61 18.62 22.61 19.60L22.61 19.60L22.61 21.26Q22.61 22.59 22.61 24.00Q22.61 25.41 22.61 27L22.61 27L18.15 27L17.81 24.67L17.41 24.67Q16.94 25.34 16.22 25.98Q15.50 26.61 14.51 27.02Q13.53 27.42 12.27 27.42ZM14.35 23.38L14.35 23.38Q14.96 23.38 15.57 23.09Q16.19 22.80 16.71 22.27Q17.23 21.73 17.62 21.00L17.62 21.00L17.62 18.32Q17.41 18.48 17.09 18.61Q16.76 18.74 16.14 18.89Q15.52 19.04 14.42 19.27L14.42 19.27Q13.79 19.39 13.33 19.68Q12.88 19.98 12.62 20.45Q12.37 20.91 12.37 21.54L12.37 21.54Q12.37 22.54 12.97 22.96Q13.58 23.38 14.35 23.38ZM30.47 27L25.23 27Q25.23 25.13 25.23 23.37Q25.23 21.61 25.23 19.44L25.23 19.44L25.23 17.69Q25.23 15.68 25.23 13.65Q25.23 11.62 25.23 9.53L25.23 9.53L29.63 9.27L29.85 12.49L30.29 12.49Q30.97 11.07 31.80 10.33Q32.62 9.59 33.48 9.32Q34.33 9.06 35.12 9.06L35.12 9.06Q35.52 9.06 36.02 9.13Q36.52 9.20 36.96 9.38L36.96 9.38L36.50 14.45Q35.82 14.40 35.28 14.36Q34.73 14.33 34.12 14.33L34.12 14.33Q33.63 14.33 33.12 14.43Q32.60 14.54 32.11 14.85Q31.62 15.17 31.20 15.73Q30.78 16.29 30.47 17.18L30.47 17.18L30.47 19.72Q30.47 21.68 30.47 23.40Q30.47 25.13 30.47 27L30.47 27ZM43.64 27L38.41 27Q38.41 25.13 38.41 23.37Q38.41 21.61 38.41 19.44L38.41 19.44L38.41 17.69Q38.41 15.96 38.41 14.58Q38.41 13.21 38.41 11.99Q38.41 10.78 38.41 9.53L38.41 9.53L43.64 9.38Q43.64 10.64 43.64 11.88Q43.64 13.12 43.64 14.52Q43.64 15.92 43.64 17.69L43.64 17.69L43.64 19.44Q43.64 21.61 43.64 23.37Q43.64 25.13 43.64 27L43.64 27ZM40.98 6.84L40.98 6.84Q39.53 6.84 38.66 6.15Q37.80 5.46 37.80 3.90L37.80 3.90Q37.80 2.50 38.66 1.76Q39.53 1.01 41.02 1.01L41.02 1.01Q42.51 1.01 43.35 1.79Q44.20 2.57 44.20 3.90L44.20 3.90Q44.20 5.46 43.35 6.15Q42.49 6.84 40.98 6.84ZM46.34 18.74L46.34 18.74L46.34 14.21Q47.88 14.21 49.31 14.21Q50.75 14.21 51.99 14.21L51.99 14.21Q53.25 14.21 54.69 14.21Q56.14 14.21 57.66 14.21L57.66 14.21L57.66 18.74Q56.14 18.74 54.69 18.74Q53.25 18.74 51.99 18.74L51.99 18.74Q50.75 18.74 49.31 18.74Q47.88 18.74 46.34 18.74ZM68.56 27.39L68.56 27.39Q65.59 27.39 63.52 26.20Q61.46 25.02 60.37 22.98Q59.29 20.93 59.29 18.30L59.29 18.30Q59.29 15.66 60.29 13.57Q61.30 11.48 63.29 10.28Q65.27 9.08 68.23 9.08L68.23 9.08Q69.28 9.08 70.30 9.24Q71.33 9.39 72.24 9.67Q73.15 9.95 73.87 10.34L73.87 10.34L73.48 14.85Q72.48 14.28 71.65 13.99Q70.82 13.70 70.16 13.60Q69.49 13.51 68.97 13.51L68.97 13.51Q66.99 13.51 65.81 14.76Q64.63 16.01 64.63 18.14L64.63 18.14Q64.63 19.60 65.21 20.71Q65.80 21.82 66.94 22.45Q68.09 23.08 69.77 23.08L69.77 23.08Q70.42 23.08 71.07 22.96Q71.71 22.84 72.35 22.59Q72.99 22.34 73.57 21.96L73.57 21.96L73.83 26.48Q73.24 26.74 72.46 26.94Q71.68 27.14 70.72 27.26Q69.75 27.39 68.56 27.39ZM81.06 27L75.83 27Q75.83 25.13 75.83 23.37Q75.83 21.61 75.83 19.44L75.83 19.44L75.83 9.73Q75.83 7.59 75.83 5.51Q75.83 3.43 75.83 1.34L75.83 1.34L81.06 0.89Q81.06 2.95 81.06 5.13Q81.06 7.31 81.06 9.73L81.06 9.73L81.06 11.97L81.50 11.97Q82.02 11.21 82.77 10.55Q83.53 9.88 84.51 9.47Q85.50 9.06 86.75 9.06L86.75 9.06Q89.37 9.06 90.72 10.61Q92.07 12.16 92.07 15.24L92.07 15.24Q92.07 16.39 92.07 17.38Q92.07 18.37 92.07 19.44L92.07 19.44Q92.07 21.57 92.07 23.35Q92.07 25.13 92.07 27L92.07 27L86.85 27Q86.85 25.13 86.85 23.38Q86.85 21.63 86.85 19.72L86.85 19.72L86.85 16.92Q86.85 15.38 86.34 14.60Q85.84 13.82 84.52 13.82L84.52 13.82Q83.77 13.82 83.14 14.13Q82.51 14.43 81.99 14.95Q81.46 15.47 81.06 16.10L81.06 16.10L81.06 19.72Q81.06 21.68 81.06 23.40Q81.06 25.13 81.06 27L81.06 27ZM98.82 27.42L98.82 27.42Q97.32 27.42 96.20 26.79Q95.08 26.16 94.45 25.01Q93.82 23.87 93.82 22.29L93.82 22.29Q93.82 20.80 94.34 19.80Q94.87 18.79 95.70 18.16Q96.53 17.53 97.52 17.20Q98.51 16.87 99.45 16.71L99.45 16.71L104.32 15.96Q104.35 14.94 103.93 14.37Q103.51 13.80 102.71 13.58Q101.92 13.35 100.82 13.35L100.82 13.35Q100.22 13.35 99.52 13.45Q98.82 13.54 98.06 13.73Q97.30 13.93 96.48 14.21Q95.67 14.49 94.85 14.89L94.85 14.89L94.60 10.43Q95.25 10.20 96.09 9.95Q96.93 9.71 97.91 9.51Q98.89 9.31 99.98 9.18Q101.08 9.06 102.23 9.06L102.23 9.06Q104.42 9.06 105.97 9.70Q107.52 10.34 108.34 11.70Q109.16 13.07 109.16 15.27L109.16 15.27Q109.16 16.13 109.16 17.38Q109.16 18.62 109.16 19.60L109.16 19.60L109.16 21.26Q109.16 22.59 109.16 24.00Q109.16 25.41 109.16 27L109.16 27L104.70 27L104.37 24.67L103.97 24.67Q103.49 25.34 102.78 25.98Q102.06 26.61 101.07 27.02Q100.08 27.42 98.82 27.42ZM100.90 23.38L100.90 23.38Q101.52 23.38 102.13 23.09Q102.74 22.80 103.27 22.27Q103.79 21.73 104.18 21.00L104.18 21.00L104.18 18.32Q103.97 18.48 103.64 18.61Q103.32 18.74 102.70 18.89Q102.08 19.04 100.97 19.27L100.97 19.27Q100.34 19.39 99.89 19.68Q99.43 19.98 99.18 20.45Q98.93 20.91 98.93 21.54L98.93 21.54Q98.93 22.54 99.53 22.96Q100.13 23.38 100.90 23.38ZM119.26 27.47L119.26 27.47Q117.32 27.47 115.94 26.89Q114.57 26.30 113.84 25.00Q113.12 23.71 113.12 21.59L113.12 21.59Q113.12 20.45 113.12 19.26Q113.12 18.06 113.12 16.74Q113.12 15.43 113.12 13.98Q113.12 12.53 113.12 10.85L113.12 10.85Q113.12 8.87 113.12 7.22Q113.12 5.58 113.12 3.86L113.12 3.86L118.26 2.94Q118.26 4.30 118.26 5.52Q118.26 6.73 118.26 8.02Q118.26 9.31 118.26 10.85L118.26 10.85L118.26 19.95Q118.26 21.54 118.85 22.37Q119.44 23.20 120.77 23.20L120.77 23.20Q121.33 23.20 121.99 23.00Q122.66 22.80 123.27 22.36L123.27 22.36L123.57 26.60Q123.11 26.88 122.41 27.07Q121.71 27.26 120.89 27.37Q120.07 27.47 119.26 27.47ZM114.66 13.47L110.28 13.47L110.28 9.53L123.48 9.53L123.48 13.47Q121.83 13.47 120.18 13.47Q118.53 13.47 116.99 13.47L116.99 13.47L114.66 13.47Z"/></g>
            
          </svg>
        